<?xml version="1.0" encoding="utf-8"?>
<!-- Generator: Adobe Illustrator 23.0.3, SVG Export Plug-In . SVG Version: 6.00 Build 0)  -->
<svg version="1.1" id="Calque_1" xmlns="http://www.w3.org/2000/svg" xmlns:xlink="http://www.w3.org/1999/xlink" x="0px" y="0px"
	 viewBox="0 0 250 250" style="enable-background:new 0 0 250 250;" xml:space="preserve">
<style type="text/css">
	.st0{fill:#CDD0D5;}
	.st1{fill:#757E8F;}
</style>
<circle class="st0" cx="125" cy="125" r="123"/>
<g>
	<path class="st1" d="M50.1,103.8h8.4v29.5h18.2v6.9H50.1V103.8z"/>
	<path class="st1" d="M88.2,138.3c-3-1.6-5.4-3.9-7.1-6.7s-2.6-6.1-2.6-9.6c0-3.6,0.9-6.8,2.6-9.6s4.1-5.1,7.1-6.7
		c3-1.6,6.4-2.4,10.2-2.4c3.8,0,7.2,0.8,10.2,2.4c3,1.6,5.4,3.9,7.1,6.7c1.7,2.9,2.6,6.1,2.6,9.6c0,3.6-0.9,6.8-2.6,9.6
		c-1.7,2.9-4.1,5.1-7.1,6.7c-3,1.6-6.4,2.4-10.2,2.4C94.7,140.8,91.3,140,88.2,138.3z M104.3,132.1c1.7-1,3.1-2.4,4.1-4.1
		c1-1.8,1.5-3.8,1.5-6c0-2.2-0.5-4.3-1.5-6c-1-1.8-2.3-3.1-4.1-4.1c-1.7-1-3.7-1.5-5.8-1.5c-2.1,0-4.1,0.5-5.8,1.5
		c-1.7,1-3.1,2.4-4.1,4.1s-1.5,3.8-1.5,6c0,2.3,0.5,4.3,1.5,6c1,1.8,2.3,3.1,4.1,4.1c1.7,1,3.7,1.5,5.8,1.5
		C100.6,133.6,102.5,133.1,104.3,132.1z"/>
	<path class="st1" d="M149.2,121.4h7.7v14.7c-2,1.5-4.3,2.6-6.9,3.4s-5.2,1.2-7.8,1.2c-3.8,0-7.2-0.8-10.2-2.4s-5.4-3.8-7.1-6.7
		s-2.6-6.1-2.6-9.7c0-3.6,0.9-6.8,2.6-9.7s4.1-5.1,7.1-6.7c3-1.6,6.5-2.4,10.3-2.4c3.2,0,6.1,0.5,8.7,1.6c2.6,1.1,4.8,2.6,6.5,4.7
		l-5.4,5c-2.6-2.7-5.7-4.1-9.4-4.1c-2.3,0-4.4,0.5-6.2,1.5c-1.8,1-3.2,2.3-4.2,4.1s-1.5,3.8-1.5,6.1c0,2.3,0.5,4.3,1.5,6
		c1,1.8,2.4,3.1,4.2,4.1s3.8,1.5,6.1,1.5c2.4,0,4.6-0.5,6.5-1.6V121.4z"/>
	<path class="st1" d="M172.1,138.3c-3-1.6-5.4-3.9-7.1-6.7s-2.6-6.1-2.6-9.6c0-3.6,0.9-6.8,2.6-9.6s4.1-5.1,7.1-6.7
		c3-1.6,6.4-2.4,10.2-2.4s7.2,0.8,10.2,2.4c3,1.6,5.4,3.9,7.1,6.7s2.6,6.1,2.6,9.6c0,3.6-0.9,6.8-2.6,9.6s-4.1,5.1-7.1,6.7
		c-3,1.6-6.4,2.4-10.2,2.4S175.1,140,172.1,138.3z M188.1,132.1c1.7-1,3.1-2.4,4.1-4.1c1-1.8,1.5-3.8,1.5-6c0-2.2-0.5-4.3-1.5-6
		s-2.3-3.1-4.1-4.1c-1.7-1-3.7-1.5-5.8-1.5s-4.1,0.5-5.8,1.5c-1.7,1-3.1,2.4-4.1,4.1c-1,1.8-1.5,3.8-1.5,6c0,2.3,0.5,4.3,1.5,6
		c1,1.8,2.3,3.1,4.1,4.1c1.7,1,3.7,1.5,5.8,1.5S186.4,133.1,188.1,132.1z"/>
</g>
</svg>
