<svg xmlns="http://www.w3.org/2000/svg" width="18" height="18" viewBox="0 0 18 18"><defs><style>.a{fill:#596377;fill-rule:evenodd;}</style></defs><g transform="translate(-254 -842)"><g transform="translate(240 828)"><path class="a" d="M29.989,14H16.011a1.924,1.924,0,0,0-1.425.6A1.949,1.949,0,0,0,14,16.011v14a1.917,1.917,0,0,0,.586,1.406A1.939,1.939,0,0,0,16.011,32H29.989a1.939,1.939,0,0,0,1.425-.586A1.917,1.917,0,0,0,32,30.009v-14a1.949,1.949,0,0,0-.586-1.415A1.924,1.924,0,0,0,29.989,14ZM22.98,28.525a5.329,5.329,0,0,0,2.157-.439,5.627,5.627,0,0,0,2.948-2.948,5.329,5.329,0,0,0,.439-2.157,4.182,4.182,0,0,0-.029-.5A3.881,3.881,0,0,0,28.408,22h1.581v7.2a.7.7,0,0,1-.2.5.646.646,0,0,1-.488.2H16.694a.646.646,0,0,1-.488-.2.7.7,0,0,1-.2-.5V22h1.542q-.039.234-.068.478a4.181,4.181,0,0,0-.029.5,5.433,5.433,0,0,0,.43,2.157,5.533,5.533,0,0,0,1.181,1.757,5.667,5.667,0,0,0,1.757,1.191A5.33,5.33,0,0,0,22.98,28.525ZM19.525,22.98a3.458,3.458,0,0,1,5.906-2.44,3.462,3.462,0,1,1-5.906,2.44ZM29.306,19h-1.62a.671.671,0,0,1-.478-.2.646.646,0,0,1-.2-.488v-1.62a.7.7,0,0,1,.683-.683h1.62a.646.646,0,0,1,.488.2.672.672,0,0,1,.2.478v1.62a.667.667,0,0,1-.683.683Z"/></g></g></svg>