<svg xmlns="http://www.w3.org/2000/svg" width="19" height="16" viewBox="0 0 19 16"><defs><style>.a{fill:#596377;}</style></defs><g transform="translate(-2 -1)"><path class="a" d="M20.341,1.306a7.023,7.023,0,0,1-2.483.968A3.9,3.9,0,0,0,15.021,1a3.97,3.97,0,0,0-3.9,4.025,5.653,5.653,0,0,0,.1.917A10.952,10.952,0,0,1,3.216,1.764,3.928,3.928,0,0,0,2.709,3.8,4.251,4.251,0,0,0,4.432,7.166a3.586,3.586,0,0,1-1.773-.51v.051A3.944,3.944,0,0,0,5.8,10.631a3.25,3.25,0,0,1-1.013.153,3.1,3.1,0,0,1-.709-.051,3.978,3.978,0,0,0,3.648,2.8,7.621,7.621,0,0,1-4.813,1.733A5.482,5.482,0,0,1,2,15.217,10.868,10.868,0,0,0,7.979,17c7.144,0,11.1-6.115,11.1-11.414v-.51A7.563,7.563,0,0,0,21,2.987a6.923,6.923,0,0,1-2.229.611A5.62,5.62,0,0,0,20.341,1.306Z"/></g></svg>