<svg xmlns="http://www.w3.org/2000/svg" width="78.158" height="65.945" viewBox="0 0 78.158 65.945">
  <g id="Group_40" data-name="Group 40" transform="translate(-928 -317.968)">
    <path id="paper-plane" d="M78.113,11.12s0-.007,0-.009a1.24,1.24,0,0,0-.172-.446.008.008,0,0,1,0-.005l-.005-.007a1.276,1.276,0,0,0-.3-.329c-.025-.02-.051-.034-.077-.052a1.233,1.233,0,0,0-.311-.152,1.252,1.252,0,0,0-.219-.044,1.2,1.2,0,0,0-.168-.034h-.005a.815.815,0,0,0-.122.008H76.7c-.012,0-.025,0-.038,0-.035.005-.07.01-.1.018L1.038,25.678A1.3,1.3,0,0,0,.693,28.1L22.328,39.515l3.794,21.056c0,.016,0,.033,0,.048a1.223,1.223,0,0,0,0,.308,1.2,1.2,0,0,0,.026.152,1.255,1.255,0,0,0,.143.349c.013.021.013.046.027.066a.1.1,0,0,0,.016.017c.017.025.04.044.06.069a1.329,1.329,0,0,0,.2.2c.012.009.02.023.033.033s.042.018.061.031a1.324,1.324,0,0,0,.248.129c.035.013.068.029.1.039a1.3,1.3,0,0,0,.36.057h0l.016,0,.066,0a1.292,1.292,0,0,0,.926-.41l14.412-9.608,15.089,9.808a1.3,1.3,0,0,0,1.929-.643l18.128-49.2a1.289,1.289,0,0,0,.19-.678A1.419,1.419,0,0,0,78.113,11.12Zm-15.07,8.745L31.832,42.815a1.266,1.266,0,0,0-.135.129.537.537,0,0,0-.048.046c-.027.03-.052.06-.077.092s-.042.064-.062.1a1.33,1.33,0,0,0-.12.245c-.007.017-.017.03-.022.047s-.007.008-.008.013L27.783,55.108,24.948,39.379ZM29.8,57.61,33.345,45.9l5.521,3.589,1.579,1.026L35.08,54.089Z" transform="translate(928 307.926)" fill="#aec3db"/>
    <line id="Line_44" data-name="Line 44" y1="10" x2="10" transform="translate(958.5 369.5)" fill="none" stroke="#aec3db" stroke-linecap="round" stroke-width="2"/>
    <line id="Line_45" data-name="Line 45" y1="7" x2="7" transform="translate(930.5 346.5)" fill="none" stroke="#aec3db" stroke-linecap="round" stroke-width="2"/>
    <line id="Line_46" data-name="Line 46" y1="9.62" x2="9.62" transform="translate(930.88 351.12)" fill="none" stroke="#aec3db" stroke-linecap="round" stroke-width="2"/>
    <line id="Line_49" data-name="Line 49" y1="6.38" x2="7" transform="translate(965.5 376.12)" fill="none" stroke="#aec3db" stroke-linecap="round" stroke-width="2"/>
  </g>
</svg>
